<?xml version="1.0" encoding="UTF-8" standalone="no"?>
<svg
   width="1280"
   height="853"
   viewBox="0 0 1280 853"
   role="img"
   aria-label="AfriTranslate AI logo"
   version="1.1"
   id="svg3"
   xmlns="http://www.w3.org/2000/svg"
   xmlns:svg="http://www.w3.org/2000/svg">
  <defs
     id="defs3">
    <linearGradient
       id="afriOrange"
       x1="223"
       y1="334"
       x2="396"
       y2="485"
       gradientUnits="userSpaceOnUse">
      <stop
         offset="0"
         stop-color="#FF7A26"
         id="stop1" />
      <stop
         offset="0.52"
         stop-color="#FF7424"
         id="stop2" />
      <stop
         offset="1"
         stop-color="#F96921"
         id="stop3" />
    </linearGradient>
  </defs>
  <rect
     id="background"
     width="1280"
     height="853"
     fill="#ffffff" />
  <path
     id="AfriTranslateAI-mark"
     fill="url(#afriOrange)"
     fill-rule="evenodd"
     d="M 312.0 385.0 L 312.0 401.0 L 320.0 403.0 L 324.0 407.0 L 328.0 417.0 L 328.0 428.0 L 327.0 430.0 L 313.0 435.0 L 313.0 443.0 L 321.0 449.0 L 328.0 462.0 L 329.0 466.0 L 329.0 485.0 L 382.0 485.0 L 389.0 482.0 L 394.0 477.0 L 397.0 466.0 L 397.0 395.0 L 395.0 389.0 L 389.0 385.0 Z M 224.0 385.0 L 224.0 472.0 L 227.0 479.0 L 231.0 483.0 L 237.0 485.0 L 287.0 485.0 L 287.0 421.0 L 288.0 414.0 L 291.0 408.0 L 295.0 404.0 L 300.0 402.0 L 302.0 400.0 L 302.0 385.0 Z M 224.0 348.0 L 224.0 374.0 L 383.0 374.0 L 380.0 363.0 L 373.0 351.0 L 364.0 342.0 L 354.0 337.0 L 347.0 335.0 L 236.0 335.0 L 231.0 337.0 L 227.0 341.0 Z" />
  <g
     id="AfriTranslateAI-wordmark"
     transform="translate(445, 442) scale(0.915, 1)">
    <path
       d="M 2.1113281,0 H 19.720703 l 4.357422,-14.240234 h 22.28125 L 50.896484,0 h 17.789063 l -23,-66.933594 H 24.4375 Z m 25.6953129,-26.369141 0.898437,-2.875 c 2.201172,-7.591796 4.177734,-16.037109 6.199219,-25.066406 2.15625,8.984375 4.357422,17.429688 6.693359,25.066406 l 0.898438,2.875 z M 104.62305,-50.222656 H 94.560547 v -2.830078 c 0,-2.964844 1.257812,-4.761719 4.986328,-4.761719 1.572265,0 3.369145,0.314453 4.537105,0.628906 l 2.51563,-11.455078 c -1.8418,-0.539062 -6.10938,-1.4375 -10.556641,-1.4375 -10.0625,0 -17.070313,5.660156 -17.070313,17.160156 v 2.695313 h -8.445312 v 11.634765 h 8.445312 V 0 H 94.560547 V -38.587891 H 104.62305 Z M 112.48438,0 h 15.67773 v -27.402344 c 0,-6.019531 4.26758,-10.0625 10.0625,-10.0625 1.88672,0 4.7168,0.314453 6.19922,0.808594 V -50.3125 c -1.30274,-0.314453 -2.96485,-0.539062 -4.44727,-0.539062 -5.52539,0 -9.92773,3.189453 -11.72461,9.792968 h -0.53906 v -9.164062 h -15.22851 z m 38.85742,0 h 15.67773 V -50.222656 H 151.3418 Z m 7.8164,-56.107422 c 4.49219,0 8.13086,-3.36914 8.13086,-7.546875 0,-4.177734 -3.63867,-7.546875 -8.13086,-7.546875 -4.44726,0 -8.08593,3.369141 -8.08593,7.546875 0,4.177735 3.63867,7.546875 8.08593,7.546875 z m 16.03711,2.111328 h 20.25977 V 0 h 15.8125 v -53.996094 h 20.25976 v -12.9375 H 175.19531 Z M 234.44727,0 H 250.125 v -27.402344 c 0,-6.019531 4.26758,-10.0625 10.0625,-10.0625 1.88672,0 4.7168,0.314453 6.19922,0.808594 V -50.3125 c -1.30274,-0.314453 -2.96485,-0.539062 -4.44727,-0.539062 -5.52539,0 -9.92773,3.189453 -11.72461,9.792968 h -0.53906 v -9.164062 h -15.22851 z m 50.89648,0.8984375 c 6.96289,0 11.81445,-2.7851562 14.55469,-7.9511719 h 0.40429 V 0 h 14.73438 v -34.095703 c 0,-10.78125 -9.83789,-16.755859 -22.32617,-16.755859 -12.57813,0 -20.48438,5.884765 -22.46094,14.464843 l 14.19531,1.841797 c 0.85352,-3.144531 3.77344,-5.166015 8.13086,-5.166015 4.26758,0 6.82813,1.976562 6.82813,5.435546 v 0.179688 c 0,3.099609 -3.41407,3.728516 -11.9043,4.447266 -10.15234,0.853515 -18.6875,4.582031 -18.6875,15.722656 0,9.9277341 6.87305,14.8242185 16.53125,14.8242185 z m 4.76172,-10.3769531 c -3.77344,0 -6.46875,-1.7968754 -6.46875,-5.1660154 0,-3.324219 2.60547,-5.300781 7.23242,-5.97461 2.91992,-0.449218 6.87305,-1.123046 8.66992,-2.066406 v 4.806641 c 0,4.941406 -4.17773,8.4003904 -9.43359,8.4003904 z M 341.0918,-28.660156 c 0,-5.839844 3.45898,-9.298828 8.58007,-9.298828 5.1211,0 8.17579,3.36914 8.17579,9.029297 V 0 h 15.67773 v -31.984375 c 0,-11.365234 -6.87305,-18.867187 -17.38477,-18.867187 -8.13085,0 -13.07226,4.492187 -15.72265,11.455078 l -0.26953,-10.826172 H 325.41406 V 0 h 15.67774 z m 63.92382,29.60351538 c 13.70118,0 23.53907,-6.64843748 23.53907,-16.98046838 0,-7.277344 -4.80664,-11.679688 -14.7793,-13.566407 l -9.61328,-1.796875 c -4.3125,-0.853515 -5.66016,-2.425781 -5.66016,-4.447265 0,-2.560547 2.96485,-4.222656 6.73828,-4.222656 4.22266,0 7.09766,1.976562 8.04102,5.345703 l 13.83594,-2.201172 c -1.75196,-8.625 -9.56836,-13.925781 -22.14649,-13.925781 -13.47656,0 -22.10156,5.929687 -22.10156,15.947265 0,7.681641 4.94141,12.578125 14.86914,14.464844 l 8.75977,1.707031 c 4.17773,0.853516 6.15429,2.15625 6.15429,4.492188 0,2.560546 -2.65039,4.177734 -7.05273,4.177734 -5.3457,0 -8.17578,-2.246094 -9.43359,-6.603516 L 381.61133,-14.375 c 1.75195,9.6132813 10.55664,15.31835938 23.40429,15.31835938 z M 452.27344,-66.933594 H 436.5957 V 0 h 15.67774 z m 24.4375,67.8320315 c 6.96289,0 11.81445,-2.7851562 14.55468,-7.9511719 h 0.4043 V 0 h 14.73438 v -34.095703 c 0,-10.78125 -9.83789,-16.755859 -22.32618,-16.755859 -12.57812,0 -20.48437,5.884765 -22.46093,14.464843 l 14.19531,1.841797 c 0.85352,-3.144531 3.77344,-5.166015 8.13086,-5.166015 4.26758,0 6.82812,1.976562 6.82812,5.435546 v 0.179688 c 0,3.099609 -3.41406,3.728516 -11.90429,4.447266 -10.15235,0.853515 -18.6875,4.582031 -18.6875,15.722656 0,9.9277341 6.87304,14.8242185 16.53125,14.8242185 z m 4.76172,-10.3769531 c -3.77344,0 -6.46875,-1.7968754 -6.46875,-5.1660154 0,-3.324219 2.60546,-5.300781 7.23242,-5.97461 2.91992,-0.449218 6.87304,-1.123046 8.66992,-2.066406 v 4.806641 c 0,4.941406 -4.17773,8.4003904 -9.43359,8.4003904 z m 62.39648,-40.7441404 h -9.0293 v -11.949219 h -15.67773 v 11.949219 h -6.64844 v 11.634765 h 6.64844 v 24.617188 c 0,9.5683593 5.61523,14.689453 16.26172,14.689453 2.96484,0 6.28906,-0.31445312 9.79297,-1.30273437 L 543.19531,-11.994141 c -0.85351,0.22461 -3.27929,0.539063 -4.35742,0.539063 -2.83008,0 -3.99805,-1.257813 -3.99805,-3.908203 v -23.22461 h 9.0293 z m 30.54688,51.16601538 c 12.17382,0 20.39453,-5.52539058 22.91015,-14.24023438 l -13.9707,-2.291016 c -1.25781,3.369141 -4.44727,5.166016 -8.66992,5.166016 -5.92969,0 -9.92774,-3.59375 -10.19727,-10.871094 h 33.55664 v -3.953125 c 0,-16.576172 -10.10742,-25.605468 -24.21289,-25.605468 -15.09375,0 -24.75195,10.421875 -24.75195,25.919921 0,16.0820316 9.56836,25.87500038 25.33594,25.87500038 z m -9.8379,-31.35546838 c 0.58399,-5.525391 3.86329,-9.074219 9.38868,-9.074219 5.48047,0 8.58007,3.369141 9.20898,9.074219 z M 623.33594,0 h 17.60937 l 4.35742,-14.240234 h 22.28125 L 672.12109,0 h 17.78907 l -23,-66.933594 h -21.24805 z m 25.69531,-26.369141 0.89844,-2.875 c 2.20117,-7.591796 4.17773,-16.037109 6.19922,-25.066406 2.15625,8.984375 4.35742,17.429688 6.69336,25.066406 l 0.89843,2.875 z m 64.05859,-40.564453 H 697.23242 V 0 h 15.85742 z"
       id="text3"
       style="font-weight:800;font-size:92px;font-family:Inter;fill:#17181d"
       aria-label="AfriTranslate AI" />
  </g>
</svg>
