<?xml version="1.0" encoding="UTF-8"?>
<svg xmlns="http://www.w3.org/2000/svg" width="910" height="192" viewBox="203 313 910 192" role="img" aria-labelledby="title desc">
  <title id="title">AfriTranslate AI logo</title>
  <desc id="desc">Clean vector recreation of the AfriTranslate AI logo with an orange icon and black wordmark.</desc>
  <defs>
    <linearGradient id="afriOrange" x1="223" y1="333" x2="396" y2="485" gradientUnits="userSpaceOnUse">
      <stop offset="0" stop-color="#ff7b2d"/>
      <stop offset="1" stop-color="#f56520"/>
    </linearGradient>
  </defs>
  <path d="M311 384 L311 399 L310 400 L311 401 L318 402 L324 408 L326 414 L326 420 L327 421 L326 424 L327 425 L326 428 L324 430 L311 434 L310 436 L311 439 L310 440 L320 448 L321 451 L325 456 L327 466 L328 467 L328 484 L351 484 L352 485 L353 484 L356 484 L357 485 L360 484 L381 484 L389 481 L392 478 L395 472 L395 468 L396 467 L396 393 L394 388 L391 385 L388 384 Z
M223 384 L223 471 L227 480 L231 483 L234 483 L235 484 L279 484 L280 485 L282 484 L286 484 L287 483 L286 482 L287 481 L286 480 L286 422 L287 421 L287 414 L289 409 L296 402 L301 400 L301 384 Z
M223 346 L223 373 L377 373 L378 374 L379 373 L383 373 L380 364 L377 359 L377 357 L369 346 L358 338 L347 334 L342 334 L341 333 L240 333 L239 334 L234 334 L228 337 L225 341 Z" fill="url(#afriOrange)" fill-rule="evenodd"/>
  <g fill="#111217" fill-rule="evenodd">
    <path d="M9 0H341L449 325H1006L1110 0H1451L928 1490H532ZM532 571 583 725C631 877 677 1029 731 1214C784 1029 830 877 876 725L926 571Z" transform="translate(445.000 443.000) scale(0.0488281 -0.0488281)"/>
    <path d="M719 1056H503V1143C503 1227 534 1259 619 1259H719V1490H552C324 1490 209 1390 209 1193V1056H18V825H209V0H503V825H719Z" transform="translate(511.338 443.000) scale(0.0488281 -0.0488281)"/>
    <path d="M104 0H399V572C399 731 488 815 609 815C659 815 714 811 736 810V1061C712 1062 683 1063 649 1063C510 1063 430 1003 391 876H388V1056H104Z" transform="translate(543.398 443.000) scale(0.0488281 -0.0488281)"/>
    <path d="M104 0H399V1056H104ZM251 1189C348 1189 419 1256 419 1346C419 1436 348 1503 251 1503C154 1503 83 1436 83 1346C83 1256 154 1189 251 1189Z" transform="translate(575.703 443.000) scale(0.0488281 -0.0488281)"/>
    <path d="M45 1226H497V0H805V1226H1256V1490H45Z" transform="translate(595.264 443.000) scale(0.0488281 -0.0488281)"/>
    <path d="M104 0H399V572C399 731 488 815 609 815C659 815 714 811 736 810V1061C712 1062 683 1063 649 1063C510 1063 430 1003 391 876H388V1056H104Z" transform="translate(653.789 443.000) scale(0.0488281 -0.0488281)"/>
    <path d="M427 -18C589 -18 680 46 736 149H740V0H1028V716C1028 942 862 1078 573 1078C283 1078 111 940 98 722H375C382 803 454 859 564 859C672 859 737 805 737 727V720C737 652 669 643 476 624C256 604 64 536 64 298C64 87 216 -18 427 -18ZM509 187C410 187 346 231 346 306C346 390 426 429 527 444C622 459 705 473 739 492V386C739 272 651 187 509 187Z" transform="translate(686.094 443.000) scale(0.0488281 -0.0488281)"/>
    <path d="M399 587C399 751 484 824 606 824C729 824 800 749 800 607V0H1094V661C1094 928 949 1078 724 1078C572 1078 465 1010 394 890V1056H104V0H399Z" transform="translate(736.367 443.000) scale(0.0488281 -0.0488281)"/>
    <path d="M543 -26C819 -26 1011 112 1011 323C1011 478 913 570 700 612L500 651C419 668 372 703 372 757C372 820 433 869 534 869C638 869 710 806 712 721H985C979 941 799 1078 526 1078C251 1078 78 946 78 746C78 582 187 478 392 438L577 402C663 385 714 352 714 296C714 231 647 185 538 185C423 185 355 240 344 332H54C72 105 269 -26 543 -26Z" transform="translate(789.912 443.000) scale(0.0488281 -0.0488281)"/>
    <path d="M399 1490H104V0H399Z" transform="translate(836.914 443.000) scale(0.0488281 -0.0488281)"/>
    <path d="M427 -18C589 -18 680 46 736 149H740V0H1028V716C1028 942 862 1078 573 1078C283 1078 111 940 98 722H375C382 803 454 859 564 859C672 859 737 805 737 727V720C737 652 669 643 476 624C256 604 64 536 64 298C64 87 216 -18 427 -18ZM509 187C410 187 346 231 346 306C346 390 426 429 527 444C622 459 705 473 739 492V386C739 272 651 187 509 187Z" transform="translate(856.475 443.000) scale(0.0488281 -0.0488281)"/>
    <path d="M711 1056H495V1344H200V1056H18V825H200V280C200 88 307 0 539 0H711V231H598C518 231 495 254 495 326V825H711Z" transform="translate(906.748 443.000) scale(0.0488281 -0.0488281)"/>
    <path d="M586 -24C842 -24 1046 122 1085 332H816C789 250 710 197 595 197C440 197 350 298 345 454H1096V533C1096 855 887 1080 576 1080C273 1080 58 849 58 527C58 206 266 -24 586 -24ZM347 642C363 774 450 856 582 856C715 856 803 774 818 642Z" transform="translate(938.613 443.000) scale(0.0488281 -0.0488281)"/>
    <path d="M9 0H341L449 325H1006L1110 0H1451L928 1490H532ZM532 571 583 725C631 877 677 1029 731 1214C784 1029 830 877 876 725L926 571Z" transform="translate(1006.201 443.000) scale(0.0488281 -0.0488281)"/>
    <path d="M419 1490H111V0H419Z" transform="translate(1072.539 443.000) scale(0.0488281 -0.0488281)"/>
  </g>
</svg>
